<svg height="370pt" viewBox="0 -136 370.001 370" width="370pt" xmlns="http://www.w3.org/2000/svg" xmlns:xlink="http://www.w3.org/1999/xlink"><linearGradient id="a"><stop offset="0" stop-color="#00efd1"/><stop offset="1" stop-color="#00acea"/></linearGradient><linearGradient id="b" gradientTransform="matrix(1 0 0 -1 -70.999 307.4295)" gradientUnits="userSpaceOnUse" x1="391.572" x2="391.572" xlink:href="#a" y1="472" y2="49.2"/><linearGradient id="c" gradientTransform="matrix(1 0 0 -1 -70.999 307.4295)" gradientUnits="userSpaceOnUse" x1="256" x2="256" xlink:href="#a" y1="472" y2="49.2"/><linearGradient id="d" gradientTransform="matrix(1 0 0 -1 -70.999 307.4295)" gradientUnits="userSpaceOnUse" x1="120.428" x2="120.428" xlink:href="#a" y1="472" y2="49.2"/><path d="m320.570312 0c-27.296874 0-49.425781 22.128906-49.425781 49.429688 0 27.296874 22.128907 49.429687 49.425781 49.429687 27.300782 0 49.429688-22.132813 49.429688-49.429687-.03125-27.285157-22.140625-49.398438-49.429688-49.429688zm0 78.859375c-16.25 0-29.425781-13.175781-29.425781-29.429687 0-16.253907 13.175781-29.429688 29.425781-29.429688 16.253907 0 29.429688 13.175781 29.429688 29.429688-.015625 16.246093-13.183594 29.410156-29.429688 29.429687zm0 0" fill="url(#b)"/><path d="m185 0c-27.296875 0-49.429688 22.128906-49.429688 49.429688 0 27.296874 22.132813 49.429687 49.429688 49.429687 27.300781 0 49.429688-22.132813 49.429688-49.429687-.03125-27.285157-22.144532-49.398438-49.429688-49.429688zm0 78.859375c-16.253906 0-29.429688-13.175781-29.429688-29.429687 0-16.253907 13.175782-29.429688 29.429688-29.429688s29.429688 13.175781 29.429688 29.429688c-.019532 16.246093-13.183594 29.410156-29.429688 29.429687zm0 0" fill="url(#c)"/><path d="m49.429688 0c-27.296876 0-49.429688 22.128906-49.429688 49.429688 0 27.296874 22.128906 49.429687 49.429688 49.429687 27.296874 0 49.429687-22.132813 49.429687-49.429687-.03125-27.285157-22.144531-49.398438-49.429687-49.429688zm0 78.859375c-16.253907 0-29.429688-13.175781-29.429688-29.429687 0-16.253907 13.175781-29.429688 29.429688-29.429688 16.253906 0 29.429687 13.175781 29.429687 29.429688-.019531 16.246093-13.183594 29.410156-29.429687 29.429687zm0 0" fill="url(#d)"/></svg>